<?xml version="1.0" standalone="no"?>
<!DOCTYPE svg PUBLIC "-//W3C//DTD SVG 20010904//EN"
 "http://www.w3.org/TR/2001/REC-SVG-20010904/DTD/svg10.dtd">
<svg version="1.0" xmlns="http://www.w3.org/2000/svg"
 width="250.000000pt" height="250.000000pt" viewBox="0 0 250.000000 250.000000"
 preserveAspectRatio="xMidYMid meet">
<metadata>
Created by potrace 1.16, written by Peter Selinger 2001-2019
</metadata>
<g transform="translate(0.000000,250.000000) scale(0.100000,-0.100000)"
fill="#000000" stroke="none">
<path d="M0 1250 l0 -1250 1250 0 1250 0 0 1250 0 1250 -1250 0 -1250 0 0
-1250z m2298 878 l-3 -233 -44 -3 c-28 -2 -47 1 -52 10 -5 7 -9 86 -9 176 l0
162 -940 0 -940 0 0 -176 0 -175 -47 3 -48 3 -3 233 -2 232 1045 0 1045 0 -2
-232z m-1567 -752 c183 -261 335 -474 336 -472 1 1 3 195 3 432 l1 429 -56 3
-56 3 3 37 3 37 145 0 145 0 0 -30 c0 -25 -4 -31 -26 -33 -15 -2 -37 -14 -50
-28 l-24 -26 -3 -544 -3 -545 -41 3 -42 3 -332 473 c-183 261 -335 476 -338
480 -3 3 -6 -189 -6 -427 l0 -432 56 7 55 6 -3 -43 -3 -44 -140 0 -140 0 -3
33 c-3 26 0 32 17 32 11 0 33 11 48 24 l28 24 3 496 3 496 -51 0 -50 0 0 40 0
40 93 0 94 0 334 -474z m1564 362 c4 -62 5 -144 3 -183 -3 -67 -4 -70 -30 -73
-25 -3 -27 -1 -33 55 -11 103 -27 154 -57 189 -37 42 -79 54 -190 54 l-88 0 0
-520 0 -520 63 3 62 2 3 -37 c4 -49 0 -49 -208 -46 l-165 3 -3 31 c-3 29 0 32
33 38 71 14 70 0 73 554 l3 495 -108 -5 c-116 -5 -158 -19 -185 -60 -23 -36
-39 -92 -46 -166 -7 -64 -8 -67 -34 -70 l-28 -3 0 170 c0 93 3 176 6 185 5 14
56 16 464 16 l458 0 7 -112z m-1983 -1320 l3 -173 938 -3 c746 -2 937 0 937
10 1 7 2 85 3 173 l2 160 53 3 52 3 0 -230 0 -231 -1045 0 -1045 0 0 230 0
230 50 0 50 0 2 -172z"/>
</g>
</svg>
